HIERARCHY
ROOT Hips
{
	OFFSET 0.000000 0.000000 0.000000
	CHANNELS 6 Xposition Yposition Zposition Zrotation Yrotation Xrotation 
	JOINT LHipJoint
	{
		OFFSET 0.000000 0.000000 0.000000
		CHANNELS 3 Zrotation Yrotation Xrotation
		JOINT LeftUpLeg
		{
			OFFSET 1.363060 -1.794630 0.839290
			CHANNELS 3 Zrotation Yrotation Xrotation
			JOINT LeftLeg
			{
				OFFSET 2.448110 -6.726130 0.000000
				CHANNELS 3 Zrotation Yrotation Xrotation
				JOINT LeftFoot
				{
					OFFSET 2.562200 -7.039590 0.000000
					CHANNELS 3 Zrotation Yrotation Xrotation
					JOINT LeftToeBase
					{
						OFFSET 0.157640 -0.433110 2.322550
						CHANNELS 3 Zrotation Yrotation Xrotation
						End Site
						{
							OFFSET 0.000000 0.000000 0.000000
						}
					}
				}
			}
		}
	}
	JOINT RHipJoint
	{
		OFFSET 0.000000 0.000000 0.000000
		CHANNELS 3 Zrotation Yrotation Xrotation
		JOINT RightUpLeg
		{
			OFFSET -1.305520 -1.794630 0.839290
			CHANNELS 3 Zrotation Yrotation Xrotation
			JOINT RightLeg
			{
				OFFSET -2.542530 -6.985550 0.000000
				CHANNELS 3 Zrotation Yrotation Xrotation
				JOINT RightFoot
				{
					OFFSET -2.568260 -7.056230 0.000000
					CHANNELS 3 Zrotation Yrotation Xrotation
					JOINT RightToeBase
					{
						OFFSET -0.164730 -0.452590 2.363150
						CHANNELS 3 Zrotation Yrotation Xrotation
						End Site
						{
							OFFSET 0.000000 0.000000 0.000000
						}
					}
				}
			}
		}
	}
}
MOTION
Frames: 11
Frame Time: 0.008333
11.893897 16.320489 0.593184 7.769222 -87.665145 -20.361157 -10.719230 3.651286 -0.972417 3.175342 22.461757 -13.886234 -0.457731 3.111549 53.397897 3.019233 21.005081 -14.022781 -2.589800 0.000000 -19.370901 10.433320 -1.985269 -1.658072 4.018233 -15.802164 11.069650 0.610480 -1.301941 27.817087 -3.812865 -15.555626 -21.790444 3.775500 0.000000 -58.904900
11.828643 16.328837 0.583505 8.197092 -87.599700 -20.373672 -10.690976 3.542759 -1.003235 2.240109 22.220332 -15.465043 -0.523256 3.154587 54.057262 2.963264 20.415224 -14.842363 -2.818500 0.000000 -17.759700 10.416988 -1.972773 -1.738544 3.977593 -15.967489 11.228587 0.637452 -1.252252 27.188753 -3.777393 -15.357441 -21.628599 3.686100 0.000000 -59.368600
11.761210 16.336894 0.574800 8.721536 -87.536599 -20.463746 -10.652358 3.430445 -1.021060 1.241264 21.961248 -17.043452 -0.599962 3.180729 54.496696 2.903021 19.775362 -15.620271 -3.009900 -0.000001 -16.764100 10.402466 -1.961801 -1.807052 3.958139 -16.090652 11.378293 0.662986 -1.199960 26.550199 -3.755219 -15.215161 -21.501056 3.618500 0.000000 -59.733200
11.691396 16.344950 0.566783 9.422174 -87.488157 -20.715731 -10.599786 3.314936 -1.028796 0.189292 21.698554 -18.612183 -0.684683 3.190231 54.715187 2.843212 19.126337 -16.303713 -3.151600 -0.000001 -16.333401 10.393543 -1.951235 -1.862764 3.955657 -16.165452 11.527944 0.686187 -1.144224 25.890510 -3.745575 -15.125412 -21.403081 3.569701 -0.000000 -59.996600
11.618490 16.353748 0.559518 10.357441 -87.471810 -21.174880 -10.531474 3.196428 -1.024200 -0.911460 21.451307 -20.191421 -0.773490 3.182425 54.720810 2.788773 18.510291 -16.841121 -3.235600 0.000000 -16.415800 10.391120 -1.944009 -1.892527 3.986156 -16.160164 11.649476 0.706605 -1.084965 25.225541 -3.750571 -15.098083 -21.337499 3.542100 -0.000001 -60.123901
11.543061 16.363219 0.552789 11.596375 -87.490626 -21.927609 -10.444453 3.075369 -1.014308 -2.047126 21.222899 -21.756512 -0.863309 3.159392 54.519697 2.743592 17.962136 -17.210651 -3.265800 0.000000 -16.876100 10.399909 -1.937152 -1.905443 4.028071 -16.091195 11.769832 0.723368 -1.022581 24.539789 -3.764841 -15.112071 -21.284888 3.525500 0.000000 -60.148000
11.464774 16.373838 0.546816 13.182197 -87.551062 -23.009555 -10.337830 2.952061 -0.997859 -3.212452 21.018250 -23.316938 -0.951523 3.121234 54.124157 2.711582 17.511637 -17.402838 -3.249400 0.000000 -17.566201 10.420625 -1.933324 -1.895162 4.085380 -15.948264 11.871498 0.736552 -0.957696 23.844376 -3.786669 -15.162712 -21.235788 3.516000 -0.000000 -60.078701
11.384097 16.385517 0.541575 15.172903 -87.650365 -24.490684 -10.210303 2.826614 -0.978636 -4.395811 20.833418 -24.853003 -1.036839 3.068798 53.541890 2.695151 17.176321 -17.430749 -3.197700 -0.000001 -18.331300 10.456104 -1.932201 -1.868084 4.141425 -15.748222 11.969241 0.746254 -0.891435 23.132919 -3.810522 -15.229236 -21.171271 3.504000 -0.000000 -59.959100
11.301003 16.398217 0.537242 17.629895 -87.783332 -26.434399 -10.061426 2.699131 -0.957045 -5.588454 20.660161 -26.351007 -1.118956 3.001672 52.779622 2.695880 16.962748 -17.321341 -3.122200 -0.000000 -19.039301 10.507939 -1.935756 -1.827085 4.184187 -15.506757 12.066882 0.753358 -0.824712 22.403229 -3.831340 -15.292612 -21.076326 3.481200 -0.000000 -59.833200
11.216089 16.411447 0.533733 20.624878 -87.940433 -28.930342 -9.892042 2.568469 -0.938934 -6.771711 20.492787 -27.771999 -1.198566 2.919502 51.838985 2.712832 16.861591 -17.110630 -3.032900 0.000000 -19.606900 10.577688 -1.944257 -1.783895 4.194976 -15.249216 12.197149 0.758661 -0.759332 21.639345 -3.843833 -15.332698 -20.933556 3.438500 0.000000 -59.758500
11.129034 16.425024 0.531285 24.225742 -88.111959 -32.040004 -9.704482 2.433325 -0.919271 -7.940225 20.316494 -29.112016 -1.276194 2.819474 50.723049 2.745229 16.857281 -16.837028 -2.937800 0.000000 -19.983400 10.663980 -1.962993 -1.736099 4.171211 -14.988512 12.345830 0.764405 -0.696044 20.845956 -3.844839 -15.337135 -20.739116 3.373000 0.000000 -59.767500
